{
	"asset":{
		"generator":"Khronos glTF Blender I/O v4.5.47",
		"version":"2.0"
	},
	"scene":0,
	"scenes":[
		{
			"name":"Scene",
			"nodes":[
				0
			]
		}
	],
	"nodes":[
		{
			"mesh":0,
			"name":"Cactus",
			"scale":[
				0.6209495067596436,
				0.6209495067596436,
				0.6209495067596436
			],
			"translation":[
				1.4459571838378906,
				1.82990562915802,
				-14.3323974609375
			]
		}
	],
	"materials":[
		{
			"doubleSided":true,
			"name":"clay",
			"pbrMetallicRoughness":{
				"baseColorFactor":[
					0.23301447927951813,
					0.045746952295303345,
					0.007316321134567261,
					1
				],
				"metallicFactor":0,
				"roughnessFactor":0.33088237047195435
			}
		},
		{
			"doubleSided":true,
			"name":"spikes",
			"pbrMetallicRoughness":{
				"baseColorFactor":[
					1,
					0.8748790621757507,
					0.5594350099563599,
					1
				],
				"metallicFactor":0,
				"roughnessFactor":0.15441179275512695
			}
		},
		{
			"doubleSided":true,
			"name":"cactus",
			"pbrMetallicRoughness":{
				"metallicFactor":0
			}
		},
		{
			"doubleSided":true,
			"name":"Ground",
			"normalTexture":{
				"index":0
			},
			"pbrMetallicRoughness":{
				"baseColorTexture":{
					"index":1
				},
				"metallicFactor":0,
				"metallicRoughnessTexture":{
					"index":2
				}
			}
		}
	],
	"meshes":[
		{
			"name":"Cactus",
			"primitives":[
				{
					"attributes":{
						"POSITION":0,
						"NORMAL":1,
						"TEXCOORD_0":2
					},
					"indices":3,
					"material":0
				},
				{
					"attributes":{
						"POSITION":4,
						"NORMAL":5,
						"TEXCOORD_0":6
					},
					"indices":7,
					"material":1
				},
				{
					"attributes":{
						"POSITION":8,
						"NORMAL":9,
						"TEXCOORD_0":10
					},
					"indices":11,
					"material":2
				},
				{
					"attributes":{
						"POSITION":12,
						"NORMAL":13,
						"TEXCOORD_0":14
					},
					"indices":15,
					"material":3
				}
			]
		}
	],
	"textures":[
		{
			"sampler":0,
			"source":0
		},
		{
			"sampler":0,
			"source":1
		},
		{
			"sampler":0,
			"source":2
		}
	],
	"images":[
		{
			"mimeType":"image/png",
			"name":"dirt normal",
			"uri":"../textures/dirt-normal.png"
		},
		{
			"mimeType":"image/png",
			"name":"dirt ao",
			"uri":"../textures/dirt-ao.png"
		},
		{
			"mimeType":"image/png",
			"name":"dirt smoothness",
			"uri":"../textures/dirt-smoothness.png"
		}
	],
	"accessors":[
		{
			"bufferView":0,
			"componentType":5126,
			"count":7042,
			"max":[
				1.5014674663543701,
				-1.8002545833587646,
				1.4697846174240112
			],
			"min":[
				-1.4943718910217285,
				-4.339319705963135,
				-1.5260547399520874
			],
			"type":"VEC3"
		},
		{
			"bufferView":1,
			"componentType":5126,
			"count":7042,
			"type":"VEC3"
		},
		{
			"bufferView":2,
			"componentType":5126,
			"count":7042,
			"type":"VEC2"
		},
		{
			"bufferView":3,
			"componentType":5123,
			"count":42240,
			"type":"SCALAR"
		},
		{
			"bufferView":4,
			"componentType":5126,
			"count":266780,
			"max":[
				1.0445146560668945,
				3.1120848655700684,
				1.1375113725662231
			],
			"min":[
				-1.0507171154022217,
				-2.5377702713012695,
				-1.1088688373565674
			],
			"type":"VEC3"
		},
		{
			"bufferView":5,
			"componentType":5126,
			"count":266780,
			"type":"VEC3"
		},
		{
			"bufferView":6,
			"componentType":5126,
			"count":266780,
			"type":"VEC2"
		},
		{
			"bufferView":7,
			"componentType":5125,
			"count":356256,
			"type":"SCALAR"
		},
		{
			"bufferView":8,
			"componentType":5126,
			"count":3527,
			"max":[
				0.8170435428619385,
				2.5914101600646973,
				0.9688454270362854
			],
			"min":[
				-0.8857243061065674,
				-2.436967372894287,
				-0.8854305744171143
			],
			"type":"VEC3"
		},
		{
			"bufferView":9,
			"componentType":5126,
			"count":3527,
			"type":"VEC3"
		},
		{
			"bufferView":10,
			"componentType":5126,
			"count":3527,
			"type":"VEC2"
		},
		{
			"bufferView":11,
			"componentType":5123,
			"count":14580,
			"type":"SCALAR"
		},
		{
			"bufferView":12,
			"componentType":5126,
			"count":81,
			"max":[
				1.3549808263778687,
				-1.8489174842834473,
				1.3224034309387207
			],
			"min":[
				-1.5084611177444458,
				-2.0499961376190186,
				-1.5410385131835938
			],
			"type":"VEC3"
		},
		{
			"bufferView":13,
			"componentType":5126,
			"count":81,
			"type":"VEC3"
		},
		{
			"bufferView":14,
			"componentType":5126,
			"count":81,
			"type":"VEC2"
		},
		{
			"bufferView":15,
			"componentType":5123,
			"count":384,
			"type":"SCALAR"
		}
	],
	"bufferViews":[
		{
			"buffer":0,
			"byteLength":84504,
			"byteOffset":0,
			"target":34962
		},
		{
			"buffer":0,
			"byteLength":84504,
			"byteOffset":84504,
			"target":34962
		},
		{
			"buffer":0,
			"byteLength":56336,
			"byteOffset":169008,
			"target":34962
		},
		{
			"buffer":0,
			"byteLength":84480,
			"byteOffset":225344,
			"target":34963
		},
		{
			"buffer":0,
			"byteLength":3201360,
			"byteOffset":309824,
			"target":34962
		},
		{
			"buffer":0,
			"byteLength":3201360,
			"byteOffset":3511184,
			"target":34962
		},
		{
			"buffer":0,
			"byteLength":2134240,
			"byteOffset":6712544,
			"target":34962
		},
		{
			"buffer":0,
			"byteLength":1425024,
			"byteOffset":8846784,
			"target":34963
		},
		{
			"buffer":0,
			"byteLength":42324,
			"byteOffset":10271808,
			"target":34962
		},
		{
			"buffer":0,
			"byteLength":42324,
			"byteOffset":10314132,
			"target":34962
		},
		{
			"buffer":0,
			"byteLength":28216,
			"byteOffset":10356456,
			"target":34962
		},
		{
			"buffer":0,
			"byteLength":29160,
			"byteOffset":10384672,
			"target":34963
		},
		{
			"buffer":0,
			"byteLength":972,
			"byteOffset":10413832,
			"target":34962
		},
		{
			"buffer":0,
			"byteLength":972,
			"byteOffset":10414804,
			"target":34962
		},
		{
			"buffer":0,
			"byteLength":648,
			"byteOffset":10415776,
			"target":34962
		},
		{
			"buffer":0,
			"byteLength":768,
			"byteOffset":10416424,
			"target":34963
		}
	],
	"samplers":[
		{
			"magFilter":9729,
			"minFilter":9987
		}
	],
	"buffers":[
		{
			"byteLength":10417192,
			"uri":"CACTUS.bin"
		}
	]
}
