{
	"asset":{
		"generator":"Khronos glTF Blender I/O v4.5.47",
		"version":"2.0"
	},
	"extensionsUsed":[
		"KHR_materials_specular"
	],
	"scene":0,
	"scenes":[
		{
			"name":"Scene",
			"nodes":[
				0
			]
		}
	],
	"nodes":[
		{
			"mesh":0,
			"name":"store video FRAME LEFT",
			"rotation":[
				-0.4999999403953552,
				-0.49999988079071045,
				0.5000000596046448,
				0.5000001192092896
			],
			"scale":[
				2.1964783668518066,
				3.0211284160614014,
				4.14200496673584
			],
			"translation":[
				5.829345703125,
				6.940485000610352,
				7.625803470611572
			]
		}
	],
	"materials":[
		{
			"doubleSided":true,
			"extensions":{
				"KHR_materials_specular":{
					"specularTexture":{
						"index":0
					}
				}
			},
			"name":"Wood rack",
			"normalTexture":{
				"index":1
			},
			"pbrMetallicRoughness":{
				"baseColorTexture":{
					"index":2
				},
				"metallicFactor":0,
				"metallicRoughnessTexture":{
					"index":3
				}
			}
		},
		{
			"doubleSided":true,
			"name":"store video FRAME LEFT",
			"pbrMetallicRoughness":{
				"baseColorFactor":[
					0.800000011920929,
					0.800000011920929,
					0.800000011920929,
					1
				],
				"metallicFactor":0,
				"roughnessFactor":0.5
			}
		}
	],
	"meshes":[
		{
			"name":"store video FRAME LEFT",
			"primitives":[
				{
					"attributes":{
						"POSITION":0,
						"NORMAL":1,
						"TEXCOORD_0":2
					},
					"indices":3,
					"material":0
				},
				{
					"attributes":{
						"POSITION":4,
						"NORMAL":5,
						"TEXCOORD_0":6
					},
					"indices":7,
					"material":1
				}
			]
		}
	],
	"textures":[
		{
			"sampler":0,
			"source":0
		},
		{
			"sampler":0,
			"source":1
		},
		{
			"sampler":0,
			"source":2
		},
		{
			"sampler":0,
			"source":3
		}
	],
	"images":[
		{
			"mimeType":"image/jpeg",
			"name":"wood06_specular",
			"uri":"../textures/wood06_specular.jpg"
		},
		{
			"mimeType":"image/jpeg",
			"name":"wood06_normal_opengl",
			"uri":"../textures/wood06_normal_opengl.jpg"
		},
		{
			"mimeType":"image/jpeg",
			"name":"wood06_diffuse",
			"uri":"../textures/wood06_diffuse.jpg"
		},
		{
			"mimeType":"image/png",
			"name":"wood06_glossiness",
			"uri":"../textures/wood06_glossiness.png"
		}
	],
	"accessors":[
		{
			"bufferView":0,
			"componentType":5126,
			"count":344,
			"max":[
				1.1041216850280762,
				0.036896660923957825,
				1.1041216850280762
			],
			"min":[
				-1.1041216850280762,
				-0.025122307240962982,
				-1.1041216850280762
			],
			"type":"VEC3"
		},
		{
			"bufferView":1,
			"componentType":5126,
			"count":344,
			"type":"VEC3"
		},
		{
			"bufferView":2,
			"componentType":5126,
			"count":344,
			"type":"VEC2"
		},
		{
			"bufferView":3,
			"componentType":5123,
			"count":600,
			"type":"SCALAR"
		},
		{
			"bufferView":4,
			"componentType":5126,
			"count":4,
			"max":[
				0.9121963977813721,
				-0.025122307240962982,
				0.9121963977813721
			],
			"min":[
				-0.9121963977813721,
				-0.025122307240962982,
				-0.9121963977813721
			],
			"type":"VEC3"
		},
		{
			"bufferView":5,
			"componentType":5126,
			"count":4,
			"type":"VEC3"
		},
		{
			"bufferView":6,
			"componentType":5126,
			"count":4,
			"type":"VEC2"
		},
		{
			"bufferView":7,
			"componentType":5123,
			"count":6,
			"type":"SCALAR"
		}
	],
	"bufferViews":[
		{
			"buffer":0,
			"byteLength":4128,
			"byteOffset":0,
			"target":34962
		},
		{
			"buffer":0,
			"byteLength":4128,
			"byteOffset":4128,
			"target":34962
		},
		{
			"buffer":0,
			"byteLength":2752,
			"byteOffset":8256,
			"target":34962
		},
		{
			"buffer":0,
			"byteLength":1200,
			"byteOffset":11008,
			"target":34963
		},
		{
			"buffer":0,
			"byteLength":48,
			"byteOffset":12208,
			"target":34962
		},
		{
			"buffer":0,
			"byteLength":48,
			"byteOffset":12256,
			"target":34962
		},
		{
			"buffer":0,
			"byteLength":32,
			"byteOffset":12304,
			"target":34962
		},
		{
			"buffer":0,
			"byteLength":12,
			"byteOffset":12336,
			"target":34963
		}
	],
	"samplers":[
		{
			"magFilter":9729,
			"minFilter":9987
		}
	],
	"buffers":[
		{
			"byteLength":12348,
			"uri":"STORE%20VIDEO%20FRAME.bin"
		}
	]
}
