{
	"asset":{
		"generator":"Khronos glTF Blender I/O v4.5.47",
		"version":"2.0"
	},
	"extensionsUsed":[
		"KHR_texture_transform"
	],
	"extensionsRequired":[
		"KHR_texture_transform"
	],
	"scene":0,
	"scenes":[
		{
			"name":"Scene",
			"nodes":[
				0
			]
		}
	],
	"nodes":[
		{
			"mesh":0,
			"name":"ROOM",
			"rotation":[
				0.00032721663592383265,
				-5.0613030907697976e-05,
				-1.3317514458321966e-05,
				1
			],
			"scale":[
				9.687498092651367,
				7.368063449859619,
				12.36838436126709
			],
			"translation":[
				8.084722518920898,
				6.508906364440918,
				-4.662186622619629
			]
		}
	],
	"materials":[
		{
			"doubleSided":true,
			"name":"Concrete wall",
			"normalTexture":{
				"extensions":{
					"KHR_texture_transform":{
						"offset":[
							0,
							-7.399999618530273
						],
						"scale":[
							7.399999618530273,
							8.399999618530273
						]
					}
				},
				"index":0,
				"scale":1.2999999523162842
			},
			"pbrMetallicRoughness":{
				"baseColorTexture":{
					"extensions":{
						"KHR_texture_transform":{
							"offset":[
								0,
								-7.399999618530273
							],
							"scale":[
								7.399999618530273,
								8.399999618530273
							]
						}
					},
					"index":1
				},
				"metallicFactor":0,
				"metallicRoughnessTexture":{
					"extensions":{
						"KHR_texture_transform":{
							"offset":[
								0,
								-7.399999618530273
							],
							"scale":[
								7.399999618530273,
								8.399999618530273
							]
						}
					},
					"index":2
				}
			}
		},
		{
			"doubleSided":true,
			"name":"Wooden Floor",
			"normalTexture":{
				"extensions":{
					"KHR_texture_transform":{
						"offset":[
							-1.5999999046325668,
							1.0000000699382199
						],
						"rotation":1.5707963705062866,
						"scale":[
							-2.799999713897705,
							1.5999999046325684
						]
					}
				},
				"index":3
			},
			"pbrMetallicRoughness":{
				"baseColorTexture":{
					"extensions":{
						"KHR_texture_transform":{
							"offset":[
								-1.5999999046325668,
								1.0000000699382199
							],
							"rotation":1.5707963705062866,
							"scale":[
								-2.799999713897705,
								1.5999999046325684
							]
						}
					},
					"index":4
				},
				"metallicFactor":0,
				"metallicRoughnessTexture":{
					"extensions":{
						"KHR_texture_transform":{
							"offset":[
								-1.5999999046325668,
								1.0000000699382199
							],
							"rotation":1.5707963705062866,
							"scale":[
								-2.799999713897705,
								1.5999999046325684
							]
						}
					},
					"index":5
				}
			}
		}
	],
	"meshes":[
		{
			"name":"ROOM",
			"primitives":[
				{
					"attributes":{
						"POSITION":0,
						"NORMAL":1,
						"TEXCOORD_0":2
					},
					"indices":3,
					"material":0
				},
				{
					"attributes":{
						"POSITION":4,
						"NORMAL":5,
						"TEXCOORD_0":6
					},
					"indices":7,
					"material":1
				}
			]
		}
	],
	"textures":[
		{
			"sampler":0,
			"source":0
		},
		{
			"sampler":0,
			"source":1
		},
		{
			"sampler":0,
			"source":2
		},
		{
			"sampler":0,
			"source":3
		},
		{
			"sampler":0,
			"source":4
		},
		{
			"sampler":0,
			"source":5
		}
	],
	"images":[
		{
			"mimeType":"image/jpeg",
			"name":"Concrete wall_Normal",
			"uri":"concrete-wall-normal.jpg"
		},
		{
			"mimeType":"image/jpeg",
			"name":"CONCRETE WALL NEW",
			"uri":"concrete-wall-base.jpg"
		},
		{
			"mimeType":"image/jpeg",
			"name":"Concrete wall_Roughness",
			"uri":"concrete-wall-roughness.jpg"
		},
		{
			"mimeType":"image/jpeg",
			"name":"woodplank_45_Normal",
			"uri":"woodplank-normal.jpg"
		},
		{
			"mimeType":"image/jpeg",
			"name":"NEW WOODPLANK BAKE",
			"uri":"woodplank-base.jpg"
		},
		{
			"mimeType":"image/jpeg",
			"name":"woodplank_45_Roughness",
			"uri":"woodplank-roughness.jpg"
		}
	],
	"accessors":[
		{
			"bufferView":0,
			"componentType":5126,
			"count":20,
			"max":[
				1,
				1,
				1
			],
			"min":[
				-1,
				-1,
				-1
			],
			"type":"VEC3"
		},
		{
			"bufferView":1,
			"componentType":5126,
			"count":20,
			"type":"VEC3"
		},
		{
			"bufferView":2,
			"componentType":5126,
			"count":20,
			"type":"VEC2"
		},
		{
			"bufferView":3,
			"componentType":5123,
			"count":42,
			"type":"SCALAR"
		},
		{
			"bufferView":4,
			"componentType":5126,
			"count":4,
			"max":[
				1,
				-1,
				1
			],
			"min":[
				-1,
				-1,
				-1
			],
			"type":"VEC3"
		},
		{
			"bufferView":5,
			"componentType":5126,
			"count":4,
			"type":"VEC3"
		},
		{
			"bufferView":6,
			"componentType":5126,
			"count":4,
			"type":"VEC2"
		},
		{
			"bufferView":7,
			"componentType":5123,
			"count":6,
			"type":"SCALAR"
		}
	],
	"bufferViews":[
		{
			"buffer":0,
			"byteLength":240,
			"byteOffset":0,
			"target":34962
		},
		{
			"buffer":0,
			"byteLength":240,
			"byteOffset":240,
			"target":34962
		},
		{
			"buffer":0,
			"byteLength":160,
			"byteOffset":480,
			"target":34962
		},
		{
			"buffer":0,
			"byteLength":84,
			"byteOffset":640,
			"target":34963
		},
		{
			"buffer":0,
			"byteLength":48,
			"byteOffset":724,
			"target":34962
		},
		{
			"buffer":0,
			"byteLength":48,
			"byteOffset":772,
			"target":34962
		},
		{
			"buffer":0,
			"byteLength":32,
			"byteOffset":820,
			"target":34962
		},
		{
			"buffer":0,
			"byteLength":12,
			"byteOffset":852,
			"target":34963
		}
	],
	"samplers":[
		{
			"magFilter":9729,
			"minFilter":9987
		}
	],
	"buffers":[
		{
			"byteLength":864,
			"uri":"room.bin"
		}
	]
}
