{
	"asset":{
		"generator":"Khronos glTF Blender I/O v4.5.47",
		"version":"2.0"
	},
	"extensionsUsed":[
		"KHR_materials_clearcoat"
	],
	"scene":0,
	"scenes":[
		{
			"name":"Scene",
			"nodes":[
				0
			]
		}
	],
	"nodes":[
		{
			"mesh":0,
			"name":"SOPRANOS",
			"rotation":[
				0.70710688829422,
				0,
				0,
				0.7071066498756409
			],
			"scale":[
				2.6596875190734863,
				2.6596875190734863,
				2.6596875190734863
			],
			"translation":[
				11.899560928344727,
				9.875672340393066,
				-16.843671798706055
			]
		}
	],
	"materials":[
		{
			"doubleSided":true,
			"name":"SOPRANOS FRAME",
			"pbrMetallicRoughness":{
				"baseColorFactor":[
					0.800000011920929,
					0.800000011920929,
					0.800000011920929,
					1
				],
				"metallicFactor":0,
				"roughnessFactor":0.5
			}
		},
		{
			"doubleSided":true,
			"extensions":{
				"KHR_materials_clearcoat":{
					"clearcoatRoughnessFactor":0
				}
			},
			"name":"frame",
			"pbrMetallicRoughness":{
				"baseColorFactor":[
					0.07999999821186066,
					0.07999999821186066,
					0.07999999821186066,
					1
				],
				"metallicFactor":0,
				"roughnessFactor":0.10000000149011612
			}
		}
	],
	"meshes":[
		{
			"name":"SOPRANOS",
			"primitives":[
				{
					"attributes":{
						"POSITION":0,
						"NORMAL":1,
						"TEXCOORD_0":2
					},
					"indices":3,
					"material":0
				},
				{
					"attributes":{
						"POSITION":4,
						"NORMAL":5,
						"TEXCOORD_0":6
					},
					"indices":7,
					"material":1
				}
			]
		}
	],
	"accessors":[
		{
			"bufferView":0,
			"componentType":5126,
			"count":48,
			"max":[
				0.4489884376525879,
				-0.002865917980670929,
				0.4496597945690155
			],
			"min":[
				-0.44899171590805054,
				-0.023320289328694344,
				-0.44832050800323486
			],
			"type":"VEC3"
		},
		{
			"bufferView":1,
			"componentType":5126,
			"count":48,
			"type":"VEC3"
		},
		{
			"bufferView":2,
			"componentType":5126,
			"count":48,
			"type":"VEC2"
		},
		{
			"bufferView":3,
			"componentType":5123,
			"count":72,
			"type":"SCALAR"
		},
		{
			"bufferView":4,
			"componentType":5126,
			"count":4350,
			"max":[
				0.49999815225601196,
				0.027634698897600174,
				0.5006694793701172
			],
			"min":[
				-0.5000016093254089,
				-0.04236602038145065,
				-0.4993302822113037
			],
			"type":"VEC3"
		},
		{
			"bufferView":5,
			"componentType":5126,
			"count":4350,
			"type":"VEC3"
		},
		{
			"bufferView":6,
			"componentType":5126,
			"count":4350,
			"type":"VEC2"
		},
		{
			"bufferView":7,
			"componentType":5123,
			"count":16440,
			"type":"SCALAR"
		}
	],
	"bufferViews":[
		{
			"buffer":0,
			"byteLength":576,
			"byteOffset":0,
			"target":34962
		},
		{
			"buffer":0,
			"byteLength":576,
			"byteOffset":576,
			"target":34962
		},
		{
			"buffer":0,
			"byteLength":384,
			"byteOffset":1152,
			"target":34962
		},
		{
			"buffer":0,
			"byteLength":144,
			"byteOffset":1536,
			"target":34963
		},
		{
			"buffer":0,
			"byteLength":52200,
			"byteOffset":1680,
			"target":34962
		},
		{
			"buffer":0,
			"byteLength":52200,
			"byteOffset":53880,
			"target":34962
		},
		{
			"buffer":0,
			"byteLength":34800,
			"byteOffset":106080,
			"target":34962
		},
		{
			"buffer":0,
			"byteLength":32880,
			"byteOffset":140880,
			"target":34963
		}
	],
	"buffers":[
		{
			"byteLength":173760,
			"uri":"SOPRANOS%20FRAME.bin"
		}
	]
}
