{
	"asset":{
		"generator":"Khronos glTF Blender I/O v4.5.47",
		"version":"2.0"
	},
	"extensionsUsed":[
		"KHR_materials_specular",
		"KHR_materials_ior"
	],
	"scene":0,
	"scenes":[
		{
			"name":"Scene",
			"nodes":[
				0
			]
		}
	],
	"nodes":[
		{
			"mesh":0,
			"name":"DJ DECK",
			"rotation":[
				-0.175882950425148,
				-0.6848832368850708,
				-0.6848834753036499,
				0.17588287591934204
			],
			"scale":[
				2.248128890991211,
				2.248128890991211,
				2.248128890991211
			],
			"translation":[
				11.662114143371582,
				3.4212329387664795,
				-12.814714431762695
			]
		}
	],
	"materials":[
		{
			"doubleSided":true,
			"extensions":{
				"KHR_materials_specular":{
					"specularColorFactor":[
						0.0,
						0.0,
						0.0
					]
				},
				"KHR_materials_ior":{
					"ior":1000
				}
			},
			"name":"DECK",
			"pbrMetallicRoughness":{
				"baseColorTexture":{
					"index":0
				},
				"metallicFactor":0.5182186365127563,
				"roughnessFactor":0.5425101518630981
			}
		}
	],
	"meshes":[
		{
			"name":"DJ DECK",
			"primitives":[
				{
					"attributes":{
						"POSITION":0,
						"NORMAL":1,
						"TEXCOORD_0":2
					},
					"indices":3,
					"material":0
				}
			]
		}
	],
	"textures":[
		{
			"sampler":0,
			"source":0
		}
	],
	"images":[
		{
			"mimeType":"image/png",
			"name":"DJ DECK",
			"uri":"DJ%20DECK.png"
		}
	],
	"accessors":[
		{
			"bufferView":0,
			"componentType":5126,
			"count":10953,
			"max":[
				0.8154605031013489,
				0.3934434950351715,
				0.05145858973264694
			],
			"min":[
				-0.8154605031013489,
				-0.39344340562820435,
				-0.06916742771863937
			],
			"type":"VEC3"
		},
		{
			"bufferView":1,
			"componentType":5126,
			"count":10953,
			"type":"VEC3"
		},
		{
			"bufferView":2,
			"componentType":5126,
			"count":10953,
			"type":"VEC2"
		},
		{
			"bufferView":3,
			"componentType":5123,
			"count":14604,
			"type":"SCALAR"
		}
	],
	"bufferViews":[
		{
			"buffer":0,
			"byteLength":131436,
			"byteOffset":0,
			"target":34962
		},
		{
			"buffer":0,
			"byteLength":131436,
			"byteOffset":131436,
			"target":34962
		},
		{
			"buffer":0,
			"byteLength":87624,
			"byteOffset":262872,
			"target":34962
		},
		{
			"buffer":0,
			"byteLength":29208,
			"byteOffset":350496,
			"target":34963
		}
	],
	"samplers":[
		{
			"magFilter":9729,
			"minFilter":9987
		}
	],
	"buffers":[
		{
			"byteLength":379704,
			"uri":"DJ%20DECK.bin"
		}
	]
}
