{
	"asset":{
		"generator":"Khronos glTF Blender I/O v4.5.47",
		"version":"2.0"
	},
	"scene":0,
	"scenes":[
		{
			"name":"Scene",
			"nodes":[
				0
			]
		}
	],
	"nodes":[
		{
			"mesh":0,
			"name":"BRUNSON DOLL",
			"rotation":[
				0.48879173398017883,
				0.6412937641143799,
				0.3585369884967804,
				0.4704001843929291
			],
			"scale":[
				0.3570699691772461,
				0.35707002878189087,
				0.2485402524471283
			],
			"translation":[
				0.4833245277404785,
				8.816617012023926,
				-2.3319973945617676
			]
		}
	],
	"materials":[
		{
			"doubleSided":true,
			"name":"DOLL ARMS",
			"pbrMetallicRoughness":{
				"baseColorTexture":{
					"index":0
				},
				"metallicFactor":0.5789473652839661
			}
		},
		{
			"doubleSided":true,
			"name":"DOLL BODY",
			"pbrMetallicRoughness":{
				"baseColorTexture":{
					"index":1
				},
				"metallicFactor":0.5870445370674133
			}
		},
		{
			"doubleSided":true,
			"name":"DOLL LEGS",
			"pbrMetallicRoughness":{
				"baseColorTexture":{
					"index":2
				},
				"metallicFactor":0.6153846383094788
			}
		},
		{
			"doubleSided":true,
			"name":"DOLL HEAD",
			"pbrMetallicRoughness":{
				"baseColorTexture":{
					"index":3
				},
				"metallicFactor":0.8056679964065552
			}
		}
	],
	"meshes":[
		{
			"name":"BRUNSON DOLL",
			"primitives":[
				{
					"attributes":{
						"POSITION":0,
						"NORMAL":1,
						"TEXCOORD_0":2
					},
					"indices":3,
					"material":0
				},
				{
					"attributes":{
						"POSITION":4,
						"NORMAL":5,
						"TEXCOORD_0":6
					},
					"indices":7,
					"material":1
				},
				{
					"attributes":{
						"POSITION":8,
						"NORMAL":9,
						"TEXCOORD_0":10
					},
					"indices":3,
					"material":2
				},
				{
					"attributes":{
						"POSITION":11,
						"NORMAL":12,
						"TEXCOORD_0":13
					},
					"indices":14,
					"material":3
				}
			]
		}
	],
	"textures":[
		{
			"sampler":0,
			"source":0
		},
		{
			"sampler":0,
			"source":0
		},
		{
			"sampler":0,
			"source":0
		},
		{
			"sampler":0,
			"source":0
		}
	],
	"images":[
		{
			"mimeType":"image/png",
			"name":"brunson doll",
			"uri":"brunson%20doll.png"
		}
	],
	"accessors":[
		{
			"bufferView":0,
			"componentType":5126,
			"count":988,
			"max":[
				0.4950007200241089,
				2.8442938327789307,
				0.7563279867172241
			],
			"min":[
				-1.1365139484405518,
				-0.48598289489746094,
				-1.724066138267517
			],
			"type":"VEC3"
		},
		{
			"bufferView":1,
			"componentType":5126,
			"count":988,
			"type":"VEC3"
		},
		{
			"bufferView":2,
			"componentType":5126,
			"count":988,
			"type":"VEC2"
		},
		{
			"bufferView":3,
			"componentType":5123,
			"count":5280,
			"type":"SCALAR"
		},
		{
			"bufferView":4,
			"componentType":5126,
			"count":2472,
			"max":[
				0.5193154811859131,
				1.678586721420288,
				0.7203599214553833
			],
			"min":[
				-1.7166688442230225,
				0.25181177258491516,
				-0.9899431467056274
			],
			"type":"VEC3"
		},
		{
			"bufferView":5,
			"componentType":5126,
			"count":2472,
			"type":"VEC3"
		},
		{
			"bufferView":6,
			"componentType":5126,
			"count":2472,
			"type":"VEC2"
		},
		{
			"bufferView":7,
			"componentType":5123,
			"count":13512,
			"type":"SCALAR"
		},
		{
			"bufferView":8,
			"componentType":5126,
			"count":988,
			"max":[
				-1.1107763051986694,
				1.6391812562942505,
				1.500841498374939
			],
			"min":[
				-2.9194304943084717,
				-0.40758734941482544,
				-1.0551247596740723
			],
			"type":"VEC3"
		},
		{
			"bufferView":9,
			"componentType":5126,
			"count":988,
			"type":"VEC3"
		},
		{
			"bufferView":10,
			"componentType":5126,
			"count":988,
			"type":"VEC2"
		},
		{
			"bufferView":11,
			"componentType":5126,
			"count":1608,
			"max":[
				2.362354278564453,
				2.628288745880127,
				1.2384604215621948
			],
			"min":[
				0.04578852653503418,
				0.41749465465545654,
				-1.714657187461853
			],
			"type":"VEC3"
		},
		{
			"bufferView":12,
			"componentType":5126,
			"count":1608,
			"type":"VEC3"
		},
		{
			"bufferView":13,
			"componentType":5126,
			"count":1608,
			"type":"VEC2"
		},
		{
			"bufferView":14,
			"componentType":5123,
			"count":9216,
			"type":"SCALAR"
		}
	],
	"bufferViews":[
		{
			"buffer":0,
			"byteLength":11856,
			"byteOffset":0,
			"target":34962
		},
		{
			"buffer":0,
			"byteLength":11856,
			"byteOffset":11856,
			"target":34962
		},
		{
			"buffer":0,
			"byteLength":7904,
			"byteOffset":23712,
			"target":34962
		},
		{
			"buffer":0,
			"byteLength":10560,
			"byteOffset":31616,
			"target":34963
		},
		{
			"buffer":0,
			"byteLength":29664,
			"byteOffset":42176,
			"target":34962
		},
		{
			"buffer":0,
			"byteLength":29664,
			"byteOffset":71840,
			"target":34962
		},
		{
			"buffer":0,
			"byteLength":19776,
			"byteOffset":101504,
			"target":34962
		},
		{
			"buffer":0,
			"byteLength":27024,
			"byteOffset":121280,
			"target":34963
		},
		{
			"buffer":0,
			"byteLength":11856,
			"byteOffset":148304,
			"target":34962
		},
		{
			"buffer":0,
			"byteLength":11856,
			"byteOffset":160160,
			"target":34962
		},
		{
			"buffer":0,
			"byteLength":7904,
			"byteOffset":172016,
			"target":34962
		},
		{
			"buffer":0,
			"byteLength":19296,
			"byteOffset":179920,
			"target":34962
		},
		{
			"buffer":0,
			"byteLength":19296,
			"byteOffset":199216,
			"target":34962
		},
		{
			"buffer":0,
			"byteLength":12864,
			"byteOffset":218512,
			"target":34962
		},
		{
			"buffer":0,
			"byteLength":18432,
			"byteOffset":231376,
			"target":34963
		}
	],
	"samplers":[
		{
			"magFilter":9729,
			"minFilter":9987
		}
	],
	"buffers":[
		{
			"byteLength":249808,
			"uri":"BRUNSON%20DOLL.bin"
		}
	]
}
