{
	"asset":{
		"generator":"Khronos glTF Blender I/O v4.5.47",
		"version":"2.0"
	},
	"extensionsUsed":[
		"KHR_materials_clearcoat",
		"KHR_materials_transmission",
		"KHR_materials_ior",
		"KHR_materials_sheen"
	],
	"scene":0,
	"scenes":[
		{
			"name":"Scene",
			"nodes":[
				0,
				1
			]
		}
	],
	"nodes":[
		{
			"mesh":0,
			"name":"SCONCE",
			"rotation":[
				0,
				0,
				-0.7071068286895752,
				0.7071068286895752
			],
			"scale":[
				0.017289234325289726,
				0.023037241771817207,
				0.016263334080576897
			],
			"translation":[
				-0.7896372675895691,
				6.323294639587402,
				-14.49732780456543
			]
		},
		{
			"mesh":1,
			"name":"SCONCE.001",
			"rotation":[
				0,
				0,
				-0.7071068286895752,
				0.7071068286895752
			],
			"scale":[
				0.017289234325289726,
				0.023037241771817207,
				0.016263334080576897
			],
			"translation":[
				-0.7896372675895691,
				6.323294639587402,
				4.544363975524902
			]
		}
	],
	"materials":[
		{
			"doubleSided":true,
			"name":"sconce metal",
			"pbrMetallicRoughness":{
				"baseColorFactor":[
					0.800000011920929,
					0.800000011920929,
					0.800000011920929,
					1
				],
				"metallicFactor":0.7773278951644897,
				"roughnessFactor":0.7410464286804199
			}
		},
		{
			"doubleSided":true,
			"extensions":{
				"KHR_materials_clearcoat":{
					"clearcoatFactor":0.7227272987365723
				},
				"KHR_materials_transmission":{
					"transmissionFactor":1
				},
				"KHR_materials_sheen":{
					"sheenColorFactor":[
						1,
						1,
						1
					],
					"sheenColorTexture":{
						"index":0
					},
					"sheenRoughnessFactor":0.3181818127632141
				},
				"KHR_materials_ior":{
					"ior":1.3300000429153442
				}
			},
			"name":"sconce plastic",
			"normalTexture":{
				"index":1
			},
			"pbrMetallicRoughness":{
				"baseColorTexture":{
					"index":2
				},
				"metallicFactor":0,
				"roughnessFactor":0
			}
		}
	],
	"meshes":[
		{
			"name":"SCONCE",
			"primitives":[
				{
					"attributes":{
						"POSITION":0,
						"NORMAL":1,
						"TEXCOORD_0":2
					},
					"indices":3,
					"material":0
				},
				{
					"attributes":{
						"POSITION":4,
						"NORMAL":5,
						"TEXCOORD_0":6
					},
					"indices":7,
					"material":1
				},
				{
					"attributes":{
						"POSITION":8,
						"NORMAL":9,
						"TEXCOORD_0":10
					},
					"indices":11,
					"material":0
				}
			]
		},
		{
			"name":"SCONCE.002",
			"primitives":[
				{
					"attributes":{
						"POSITION":12,
						"NORMAL":13,
						"TEXCOORD_0":14
					},
					"indices":3,
					"material":0
				},
				{
					"attributes":{
						"POSITION":15,
						"NORMAL":16,
						"TEXCOORD_0":17
					},
					"indices":7,
					"material":1
				},
				{
					"attributes":{
						"POSITION":18,
						"NORMAL":19,
						"TEXCOORD_0":20
					},
					"indices":11,
					"material":0
				}
			]
		}
	],
	"textures":[
		{
			"sampler":0,
			"source":0
		},
		{
			"sampler":0,
			"source":1
		},
		{
			"sampler":0,
			"source":2
		}
	],
	"images":[
		{
			"mimeType":"image/jpeg",
			"name":"Small_Blemishs_Tiled",
			"uri":"Small_Blemishs_Tiled.jpg"
		},
		{
			"mimeType":"image/jpeg",
			"name":"Super Fine bump details_Tiled",
			"uri":"Super%20Fine%20bump%20details_Tiled.jpg"
		},
		{
			"mimeType":"image/jpeg",
			"name":"Dirt_Tiled",
			"uri":"Dirt_Tiled.jpg"
		}
	],
	"accessors":[
		{
			"bufferView":0,
			"componentType":5126,
			"count":33387,
			"max":[
				89.08477783203125,
				31.538005828857422,
				45.969722747802734
			],
			"min":[
				-67.54364013671875,
				-36.03673553466797,
				-45.576080322265625
			],
			"type":"VEC3"
		},
		{
			"bufferView":1,
			"componentType":5126,
			"count":33387,
			"type":"VEC3"
		},
		{
			"bufferView":2,
			"componentType":5126,
			"count":33387,
			"type":"VEC2"
		},
		{
			"bufferView":3,
			"componentType":5123,
			"count":97356,
			"type":"SCALAR"
		},
		{
			"bufferView":4,
			"componentType":5126,
			"count":40,
			"max":[
				50.541072845458984,
				24.94027328491211,
				35.39307403564453
			],
			"min":[
				-68.01748657226562,
				-27.02269172668457,
				-35.856056213378906
			],
			"type":"VEC3"
		},
		{
			"bufferView":5,
			"componentType":5126,
			"count":40,
			"type":"VEC3"
		},
		{
			"bufferView":6,
			"componentType":5126,
			"count":40,
			"type":"VEC2"
		},
		{
			"bufferView":7,
			"componentType":5123,
			"count":60,
			"type":"SCALAR"
		},
		{
			"bufferView":8,
			"componentType":5126,
			"count":87216,
			"max":[
				58.283016204833984,
				28.565975189208984,
				45.035308837890625
			],
			"min":[
				-58.37755584716797,
				-33.938209533691406,
				-44.64167785644531
			],
			"type":"VEC3"
		},
		{
			"bufferView":9,
			"componentType":5126,
			"count":87216,
			"type":"VEC3"
		},
		{
			"bufferView":10,
			"componentType":5126,
			"count":87216,
			"type":"VEC2"
		},
		{
			"bufferView":11,
			"componentType":5125,
			"count":248652,
			"type":"SCALAR"
		},
		{
			"bufferView":12,
			"componentType":5126,
			"count":33387,
			"max":[
				89.08477783203125,
				31.538005828857422,
				45.969722747802734
			],
			"min":[
				-67.54364013671875,
				-36.03673553466797,
				-45.576080322265625
			],
			"type":"VEC3"
		},
		{
			"bufferView":13,
			"componentType":5126,
			"count":33387,
			"type":"VEC3"
		},
		{
			"bufferView":14,
			"componentType":5126,
			"count":33387,
			"type":"VEC2"
		},
		{
			"bufferView":15,
			"componentType":5126,
			"count":40,
			"max":[
				50.541072845458984,
				24.94027328491211,
				35.39307403564453
			],
			"min":[
				-68.01748657226562,
				-27.02269172668457,
				-35.856056213378906
			],
			"type":"VEC3"
		},
		{
			"bufferView":16,
			"componentType":5126,
			"count":40,
			"type":"VEC3"
		},
		{
			"bufferView":17,
			"componentType":5126,
			"count":40,
			"type":"VEC2"
		},
		{
			"bufferView":18,
			"componentType":5126,
			"count":87216,
			"max":[
				58.283016204833984,
				28.565975189208984,
				45.035308837890625
			],
			"min":[
				-58.37755584716797,
				-33.938209533691406,
				-44.64167785644531
			],
			"type":"VEC3"
		},
		{
			"bufferView":19,
			"componentType":5126,
			"count":87216,
			"type":"VEC3"
		},
		{
			"bufferView":20,
			"componentType":5126,
			"count":87216,
			"type":"VEC2"
		}
	],
	"bufferViews":[
		{
			"buffer":0,
			"byteLength":400644,
			"byteOffset":0,
			"target":34962
		},
		{
			"buffer":0,
			"byteLength":400644,
			"byteOffset":400644,
			"target":34962
		},
		{
			"buffer":0,
			"byteLength":267096,
			"byteOffset":801288,
			"target":34962
		},
		{
			"buffer":0,
			"byteLength":194712,
			"byteOffset":1068384,
			"target":34963
		},
		{
			"buffer":0,
			"byteLength":480,
			"byteOffset":1263096,
			"target":34962
		},
		{
			"buffer":0,
			"byteLength":480,
			"byteOffset":1263576,
			"target":34962
		},
		{
			"buffer":0,
			"byteLength":320,
			"byteOffset":1264056,
			"target":34962
		},
		{
			"buffer":0,
			"byteLength":120,
			"byteOffset":1264376,
			"target":34963
		},
		{
			"buffer":0,
			"byteLength":1046592,
			"byteOffset":1264496,
			"target":34962
		},
		{
			"buffer":0,
			"byteLength":1046592,
			"byteOffset":2311088,
			"target":34962
		},
		{
			"buffer":0,
			"byteLength":697728,
			"byteOffset":3357680,
			"target":34962
		},
		{
			"buffer":0,
			"byteLength":994608,
			"byteOffset":4055408,
			"target":34963
		},
		{
			"buffer":0,
			"byteLength":400644,
			"byteOffset":5050016,
			"target":34962
		},
		{
			"buffer":0,
			"byteLength":400644,
			"byteOffset":5450660,
			"target":34962
		},
		{
			"buffer":0,
			"byteLength":267096,
			"byteOffset":5851304,
			"target":34962
		},
		{
			"buffer":0,
			"byteLength":480,
			"byteOffset":6118400,
			"target":34962
		},
		{
			"buffer":0,
			"byteLength":480,
			"byteOffset":6118880,
			"target":34962
		},
		{
			"buffer":0,
			"byteLength":320,
			"byteOffset":6119360,
			"target":34962
		},
		{
			"buffer":0,
			"byteLength":1046592,
			"byteOffset":6119680,
			"target":34962
		},
		{
			"buffer":0,
			"byteLength":1046592,
			"byteOffset":7166272,
			"target":34962
		},
		{
			"buffer":0,
			"byteLength":697728,
			"byteOffset":8212864,
			"target":34962
		}
	],
	"samplers":[
		{
			"magFilter":9729,
			"minFilter":9987
		}
	],
	"buffers":[
		{
			"byteLength":8910592,
			"uri":"sconce.bin"
		}
	]
}
